<?xml version="1.0" encoding="utf-8"?>
<!-- Generator: Adobe Illustrator 22.0.1, SVG Export Plug-In . SVG Version: 6.00 Build 0)  -->
<svg version="1.1" id="レイヤー_1" xmlns="http://www.w3.org/2000/svg" xmlns:xlink="http://www.w3.org/1999/xlink" x="0px"
	 y="0px" viewBox="0 0 96 48" style="enable-background:new 0 0 96 48;" xml:space="preserve">
<style type="text/css">
	.st0{fill:#5A636D;}
</style>
<g>
	<path class="st0" d="M14.625,17.5h-13c-0.894,0-1.617,0.731-1.617,1.625L0,28.875C0,29.769,0.731,30.5,1.625,30.5h13
		c0.894,0,1.625-0.731,1.625-1.625v-9.75C16.25,18.231,15.519,17.5,14.625,17.5z M14.625,20.75l-6.5,4.062l-6.5-4.062v-1.625
		l6.5,4.062l6.5-4.062V20.75z"/>
</g>
<g>
	<path class="st0" d="M23.608,24.03c0.923-0.3,1.883-0.455,2.675-0.455c1.715,0,2.926,0.947,2.926,2.326
		c0,1.439-0.936,2.327-2.519,2.711c-0.528,0.12-1.056,0.144-1.451,0.155l-0.3-0.852c0.432,0,0.924,0.013,1.392-0.084
		c1.043-0.191,2.027-0.779,2.027-1.919c0-1.043-0.948-1.583-2.087-1.583c-0.923,0-1.775,0.168-2.65,0.492
		c0.012,1.007,0.048,2.074,0.048,2.614c0,1.031-0.384,1.379-1.007,1.379c-0.888,0-2.411-0.887-2.411-1.919
		c0-0.971,1.235-2.002,2.579-2.578v-0.636c0-0.504,0.012-1.091,0.024-1.655c-0.348,0.036-0.66,0.048-0.924,0.048
		c-0.54,0-1.043-0.023-1.475-0.06l-0.024-0.827c0.636,0.084,1.055,0.096,1.487,0.096c0.276,0,0.6-0.012,0.947-0.036
		c0.012-0.659,0.024-1.211,0.024-1.427c0-0.229-0.024-0.601-0.072-0.792h0.936c-0.012,0.204-0.048,0.504-0.048,0.768
		c-0.012,0.288-0.024,0.779-0.048,1.367c0.875-0.107,1.799-0.288,2.483-0.492l0.024,0.84c-0.696,0.168-1.643,0.324-2.531,0.432
		c-0.012,0.588-0.024,1.199-0.024,1.691V24.03z M22.888,27.329c0-0.456-0.024-1.308-0.048-2.195
		c-0.996,0.468-1.751,1.163-1.751,1.728c0,0.563,0.863,1.067,1.367,1.067C22.745,27.928,22.888,27.712,22.888,27.329z
		 M27.518,20.336c0.828,0.443,2.111,1.271,2.675,1.738l-0.432,0.696c-0.588-0.576-1.871-1.367-2.639-1.775L27.518,20.336z"/>
	<path class="st0" d="M33.198,23.191v6.26h-0.779v-10.41h4.257v4.15H33.198z M33.198,19.688v1.08h2.723v-1.08H33.198z M35.92,22.542
		v-1.175h-2.723v1.175H35.92z M35.729,27.76v0.72h-0.756v-4.174h4.45v3.454H35.729z M35.729,24.99v2.087h2.95V24.99H35.729z
		 M42.157,28.335c0,0.552-0.144,0.815-0.503,0.96c-0.396,0.132-1.08,0.144-2.111,0.144c-0.036-0.216-0.18-0.6-0.288-0.815
		c0.804,0.036,1.583,0.024,1.811,0.012c0.216-0.012,0.3-0.071,0.3-0.312v-5.133h-3.574v-4.15h4.365V28.335z M38.559,19.688v1.08
		h2.806v-1.08H38.559z M41.365,22.542v-1.175h-2.806v1.175H41.365z"/>
	<path class="st0" d="M46.193,21.332c-0.012,0.731,0,1.859,0.096,2.854c0.192,2.039,0.804,3.37,1.667,3.37
		c0.612,0,1.188-1.199,1.499-2.435l0.696,0.756c-0.708,2.003-1.439,2.687-2.219,2.687c-1.08,0-2.159-1.116-2.483-4.174
		c-0.107-1.02-0.132-2.459-0.132-3.154c0-0.264-0.012-0.768-0.071-1.031l1.043,0.023C46.241,20.492,46.205,21.02,46.193,21.332z
		 M54.601,26.345l-0.863,0.335c-0.216-2.183-0.947-4.449-2.051-5.828l0.827-0.288C53.569,21.943,54.409,24.306,54.601,26.345z"/>
	<path class="st0" d="M62.103,18.549c1.271,1.763,3.406,3.454,5.289,4.317c-0.18,0.18-0.384,0.468-0.516,0.684
		c-1.87-0.983-3.981-2.675-5.121-4.21c-0.983,1.451-2.95,3.179-5.001,4.294c-0.108-0.18-0.324-0.456-0.504-0.636
		c2.099-1.067,4.102-2.891,5.062-4.449H62.103z M58.181,24.69h7.244v4.749h-0.803v-0.491h-5.661v0.491h-0.78V24.69z M64.802,22.423
		v0.719h-6.021v-0.719H64.802z M58.961,25.41v2.818h5.661V25.41H58.961z"/>
	<path class="st0" d="M73.228,21.295c-0.144,0.216-0.348,0.528-0.516,0.804c-0.024,0.275-0.048,0.563-0.06,0.852
		c1.318-1.115,2.674-1.535,3.813-1.535c1.619,0,3.082,1.127,3.095,2.962c0.012,2.387-1.775,3.622-4.306,4.103l-0.384-0.816
		c1.99-0.275,3.838-1.223,3.825-3.31c0-0.912-0.707-2.159-2.351-2.159c-1.379,0-2.675,0.708-3.754,1.739
		c-0.036,0.516-0.048,1.02-0.048,1.451c0,1.104-0.012,1.787,0.036,2.83c0.012,0.204,0.036,0.48,0.06,0.696h-0.936
		c0.013-0.156,0.036-0.48,0.036-0.672c0-1.151,0.012-1.703,0.024-2.975c0-0.168,0.012-0.407,0.023-0.684
		c-0.587,0.888-1.403,2.063-2.015,2.915l-0.54-0.744c0.66-0.827,2.051-2.734,2.639-3.646c0.036-0.408,0.061-0.828,0.084-1.224
		c-0.527,0.072-1.571,0.216-2.339,0.323l-0.096-0.887c0.252,0.012,0.479,0,0.731-0.013c0.384-0.035,1.128-0.107,1.764-0.203
		c0.035-0.588,0.06-1.032,0.06-1.164c0-0.264,0-0.563-0.048-0.852l1.031,0.036c-0.06,0.276-0.144,0.96-0.24,1.812l0.072-0.024
		L73.228,21.295z"/>
	<path class="st0" d="M89.833,19.353c-0.023,0.203-0.048,0.587-0.048,0.827c-0.012,0.54-0.012,1.176-0.023,1.715
		c0.504-0.048,0.971-0.071,1.379-0.096c0.312-0.012,0.624-0.036,0.888-0.048v0.863c-0.18-0.012-0.588-0.012-0.888-0.012
		c-0.372,0.012-0.852,0.036-1.403,0.071c-0.023,0.852-0.06,1.955-0.18,2.52c-0.096,0.503-0.348,0.659-0.876,0.659
		c-0.443,0-1.223-0.12-1.535-0.168l0.024-0.768c0.408,0.096,0.911,0.156,1.199,0.156c0.3,0,0.42-0.048,0.456-0.324
		c0.071-0.396,0.12-1.247,0.132-2.026c-1.235,0.107-2.675,0.239-3.886,0.359c0,1.247-0.013,2.507,0.012,2.962
		c0.036,1.308,0.036,1.775,2.135,1.775c1.319,0,2.782-0.132,3.538-0.264l-0.036,0.899c-0.791,0.084-2.242,0.204-3.454,0.204
		c-2.698,0-2.938-0.636-2.998-2.495c-0.012-0.516-0.012-1.787-0.012-2.998c-0.552,0.06-1.02,0.12-1.344,0.156
		c-0.372,0.048-0.84,0.107-1.163,0.155l-0.096-0.887c0.371,0,0.803-0.024,1.199-0.061c0.312-0.023,0.804-0.072,1.403-0.132
		l0.012-1.728c0-0.335-0.012-0.587-0.072-0.947h0.947c-0.035,0.252-0.048,0.576-0.048,0.912l-0.012,1.679
		c1.176-0.108,2.591-0.252,3.886-0.359c0.012-0.576,0.012-1.235,0.012-1.739c0-0.264-0.023-0.66-0.06-0.863H89.833z"/>
</g>
</svg>
