<?xml version="1.0" encoding="utf-8"?>
<!-- Generator: Adobe Illustrator 22.0.1, SVG Export Plug-In . SVG Version: 6.00 Build 0)  -->
<svg version="1.1" id="レイヤー_1" xmlns="http://www.w3.org/2000/svg" xmlns:xlink="http://www.w3.org/1999/xlink" x="0px"
	 y="0px" viewBox="0 0 72 48" style="enable-background:new 0 0 72 48;" xml:space="preserve">
<style type="text/css">
	.st0{fill:#5A636D;}
</style>
<g>
	<path class="st0" d="M6.974,32.5c0.959,0,1.744-0.785,1.744-1.744H5.231C5.231,31.715,6.007,32.5,6.974,32.5z M12.205,27.269V22.91
		c0-2.676-1.43-4.917-3.923-5.51v-0.593c0-0.724-0.584-1.308-1.308-1.308s-1.308,0.584-1.308,1.308V17.4
		c-2.502,0.593-3.923,2.825-3.923,5.51v4.359L0,29.013v0.872h13.949v-0.872L12.205,27.269z"/>
</g>
<g>
	<path class="st0" d="M21.307,24.065c0.923-0.3,1.883-0.455,2.675-0.455c1.715,0,2.926,0.947,2.926,2.326
		c0,1.439-0.936,2.327-2.519,2.711c-0.528,0.12-1.056,0.144-1.451,0.155l-0.3-0.852c0.432,0,0.924,0.013,1.392-0.084
		c1.043-0.191,2.027-0.779,2.027-1.919c0-1.043-0.948-1.583-2.087-1.583c-0.923,0-1.775,0.168-2.65,0.492
		c0.012,1.007,0.048,2.074,0.048,2.614c0,1.031-0.384,1.379-1.007,1.379c-0.888,0-2.411-0.887-2.411-1.919
		c0-0.971,1.235-2.002,2.579-2.578v-0.636c0-0.504,0.012-1.091,0.024-1.655c-0.348,0.036-0.66,0.048-0.924,0.048
		c-0.54,0-1.043-0.023-1.475-0.06l-0.024-0.827c0.636,0.084,1.055,0.096,1.487,0.096c0.276,0,0.6-0.012,0.947-0.036
		c0.012-0.659,0.024-1.211,0.024-1.427c0-0.229-0.024-0.601-0.072-0.792h0.936c-0.012,0.204-0.048,0.504-0.048,0.768
		c-0.012,0.288-0.024,0.779-0.048,1.367c0.875-0.107,1.799-0.288,2.483-0.492l0.024,0.84c-0.696,0.168-1.643,0.324-2.531,0.432
		c-0.012,0.588-0.024,1.199-0.024,1.691V24.065z M20.587,27.364c0-0.456-0.024-1.308-0.048-2.195
		c-0.996,0.468-1.751,1.163-1.751,1.728c0,0.563,0.863,1.067,1.367,1.067C20.444,27.963,20.587,27.748,20.587,27.364z
		 M25.217,20.372c0.828,0.443,2.111,1.271,2.675,1.738l-0.432,0.696c-0.588-0.576-1.871-1.367-2.639-1.775L25.217,20.372z"/>
	<path class="st0" d="M32.852,22.961c0,0.132,0,0.276-0.012,0.433h2.303v0.755h-2.338c-0.036,0.276-0.072,0.576-0.132,0.863
		c0.552,0.54,2.051,2.207,2.399,2.639l-0.528,0.672c-0.396-0.563-1.403-1.751-2.063-2.494c-0.359,1.319-1.103,2.626-2.519,3.622
		c-0.084-0.168-0.372-0.468-0.54-0.588c1.859-1.331,2.435-3.106,2.59-4.714h-2.47v-0.755h2.506c0.012-0.156,0.012-0.312,0.012-0.444
		v-2.039h-0.996c-0.288,0.744-0.612,1.415-0.996,1.943c-0.132-0.132-0.468-0.36-0.647-0.456c0.708-0.947,1.211-2.387,1.511-3.85
		l0.768,0.144c-0.108,0.516-0.24,1.008-0.396,1.476h3.478v0.743h-1.931V22.961z M39.784,19.591v9.427H38.98v-0.839h-2.663v0.959
		h-0.779v-9.547H39.784z M38.98,27.423v-7.076h-2.663v7.076H38.98z"/>
	<path class="st0" d="M43.868,24.773c1.151-1.031,2.471-1.487,3.91-1.487c1.775,0,2.999,1.067,2.999,2.459
		c0,2.11-1.931,3.514-6.237,3.154l-0.264-0.876c3.778,0.456,5.601-0.659,5.601-2.314c0-0.972-0.912-1.655-2.147-1.655
		c-1.631,0-2.878,0.588-3.73,1.607c-0.168,0.203-0.276,0.396-0.348,0.587l-0.815-0.203c0.228-1.067,0.54-3.586,0.6-4.786l0.923,0.12
		C44.204,22.207,44,23.994,43.868,24.773z M44.672,19.255c0.995,0.312,3.514,0.804,4.569,0.912l-0.204,0.827
		c-1.115-0.144-3.682-0.671-4.582-0.923L44.672,19.255z"/>
	<path class="st0" d="M61.085,19.388c-0.024,0.203-0.048,0.587-0.048,0.827c-0.012,0.54-0.012,1.176-0.023,1.715
		c0.504-0.048,0.971-0.071,1.379-0.096c0.312-0.012,0.623-0.036,0.887-0.048v0.863c-0.18-0.012-0.587-0.012-0.887-0.012
		c-0.372,0.012-0.852,0.036-1.403,0.071c-0.024,0.852-0.06,1.955-0.181,2.52c-0.096,0.503-0.348,0.659-0.875,0.659
		c-0.443,0-1.223-0.12-1.535-0.168l0.023-0.768c0.408,0.096,0.912,0.156,1.2,0.156c0.3,0,0.419-0.048,0.456-0.324
		c0.071-0.396,0.119-1.247,0.131-2.026c-1.234,0.107-2.674,0.239-3.885,0.359c0,1.247-0.013,2.507,0.012,2.962
		c0.035,1.308,0.035,1.775,2.135,1.775c1.319,0,2.782-0.132,3.538-0.264l-0.036,0.899c-0.791,0.084-2.242,0.204-3.454,0.204
		c-2.698,0-2.938-0.636-2.999-2.495c-0.012-0.516-0.012-1.787-0.012-2.998c-0.551,0.06-1.02,0.12-1.343,0.156
		c-0.372,0.048-0.84,0.107-1.164,0.155l-0.096-0.887c0.372,0,0.803-0.024,1.2-0.061c0.312-0.023,0.803-0.072,1.402-0.132
		l0.012-1.728c0-0.335-0.012-0.587-0.071-0.947h0.947c-0.036,0.252-0.048,0.576-0.048,0.912l-0.012,1.679
		c1.176-0.108,2.59-0.252,3.886-0.359c0.012-0.576,0.012-1.235,0.012-1.739c0-0.264-0.024-0.66-0.06-0.863H61.085z"/>
</g>
</svg>
