<?xml version="1.0" encoding="utf-8"?>
<!-- Generator: Adobe Illustrator 23.0.0, SVG Export Plug-In . SVG Version: 6.00 Build 0)  -->
<svg version="1.1" id="レイヤー_1" xmlns="http://www.w3.org/2000/svg" xmlns:xlink="http://www.w3.org/1999/xlink" x="0px"
	 y="0px" viewBox="0 0 77 48" style="enable-background:new 0 0 77 48;" xml:space="preserve">
<style type="text/css">
	.st0{fill-rule:evenodd;clip-rule:evenodd;fill:#5A636D;}
	.st1{fill:#FFFFFF;}
	.st2{enable-background:new    ;}
	.st3{fill:#5A636D;}
</style>
<g>
	<path class="st0" d="M12.4,32.8H1.6c-0.8,0-1.5-0.7-1.5-1.5V18.1c0-0.8,0.7-1.5,1.5-1.5h10.8c0.8,0,1.5,0.7,1.5,1.5v13.2
		C13.9,32.1,13.3,32.8,12.4,32.8z"/>
	<path class="st0" d="M12.7,16.6H9.6v1.1h2.5c0.3,0,0.6,0.2,0.6,0.6v3.2v2.3v7.3c0,0.3-0.3,0.6-0.6,0.6H5.7H5.2H2
		c-0.3,0-0.6-0.3-0.6-0.6V18.3c0-0.3,0.3-0.6,0.6-0.6h2.6v-1.1H1.4c-0.7,0-1.3,0.5-1.3,1.1v14c0,0.6,0.6,1.1,1.3,1.1h3.1h2.7h5.6
		c0.7,0,1.3-0.5,1.3-1.1V23v-1.2v-4.1C14,17.1,13.4,16.6,12.7,16.6z"/>
	<g>
		<path class="st0" d="M3.2,19.7v-1c0-0.4,0.4-0.7,0.9-0.7h1.1v-2.3l0.2-0.1c0,0,0.7-0.5,1.7-0.5c0.6,0,1.2,0.2,1.7,0.5L9,15.7V18h1
			c0.5,0,0.9,0.3,0.9,0.7v1H3.2z"/>
		<path class="st1" d="M7.1,15.5c0.4,0,0.9,0.1,1.5,0.4v2.4H10c0.3,0,0.5,0.1,0.5,0.3c0,0.2,0,0.6,0,0.6H3.6c0,0,0-0.4,0-0.6
			s0.2-0.3,0.5-0.3h1.5v-2.4C5.6,15.9,6.2,15.5,7.1,15.5 M7.1,14.7c-1.1,0-1.9,0.5-1.9,0.5l-0.4,0.2v0.4v1.6H4.1
			c-0.7,0-1.3,0.5-1.3,1.1v0.6v0.8h0.8h6.9h0.8v-0.8v-0.6c0-0.6-0.6-1.1-1.3-1.1H9.3V16v-0.4L9,15.3C8.4,14.9,7.8,14.7,7.1,14.7
			L7.1,14.7z"/>
	</g>
	<g>
		<path class="st1" d="M10.8,24.5L6.3,29c-0.1,0.1-0.3,0.1-0.4,0l-0.1-0.1l0,0l-0.1-0.1l-0.4-0.4l0,0l-1.9-2c-0.1-0.1-0.1-0.3,0-0.4
			L4,25.4c0.1-0.1,0.3-0.1,0.4,0l1.7,1.8l3.7-3.7c0.1-0.1,0.3-0.1,0.4,0l0.6,0.6C10.9,24.2,10.9,24.3,10.8,24.5z"/>
	</g>
	<g class="st2">
		<path class="st3" d="M19.4,24.4c-0.8,0.7-1.2,1.2-1.2,1.8c0,0.6,0.4,1,1,1.2c0.5,0.2,1.3,0.2,2.2,0.2c1.5,0,3-0.2,3.6-0.5l0.1,1
			c-0.2,0-0.2,0-0.4,0.1c-1.1,0.2-2.2,0.3-3.3,0.3c-1.2,0-2.2-0.1-2.8-0.4c-0.9-0.4-1.4-1-1.4-1.8c0-0.8,0.5-1.6,1.4-2.3L19.4,24.4z
			 M18.1,20c0.9,0.2,1.8,0.3,3.2,0.3c1.4,0,2.4-0.1,3.1-0.3l0.1,0.8c-0.8,0.3-1.9,1-3.1,1.8l-0.6-0.5c0.8-0.5,1.1-0.7,1.6-1
			c0.1-0.1,0.2-0.1,0.3-0.2c0.1,0,0.1,0,0.2-0.1C22.2,21,21.8,21,21.1,21c-0.8,0-1.9-0.1-2.7-0.2c-0.2,0-0.2,0-0.4,0L18.1,20z
			 M24.1,21.9c0.6,0.7,0.8,1,1.2,1.6l-0.6,0.3c-0.4-0.6-0.6-1-1.2-1.6L24.1,21.9z M25.3,21.2c0.6,0.7,0.8,1,1.2,1.6l-0.6,0.3
			c-0.4-0.6-0.6-1-1.2-1.6L25.3,21.2z"/>
		<path class="st3" d="M28.8,19.8c-0.5,0-0.7,0-1,0.1v-0.8c0.3,0,0.7,0.1,1.1,0.1h1.7c0.4,0,0.7,0,1-0.1v0.8c-0.3,0-0.5,0-0.9,0H30
			c-0.2,1.2-0.4,1.9-0.8,3.1h1.3c0.3,0,0.5,0,0.8,0c0,0.3,0,0.6,0,1v3.8c0,0.5,0,0.7,0,1h-0.7V28h-1.3v1.3h-0.8
			c0-0.3,0.1-0.6,0.1-1.2v-2.8c0-0.1,0-0.9,0.1-1.3c-0.3,0.7-0.5,1.1-0.8,1.5c-0.2-0.4-0.2-0.5-0.4-0.7c0.7-0.9,1.1-1.7,1.5-2.9
			c0.2-0.7,0.3-1.2,0.5-2.2H28.8z M29.2,27.4h1.3v-3.8h-1.3V27.4z M37.2,28.4c0.5,0,0.8,0,1.2-0.1v0.8c-0.4,0-0.7-0.1-1.2-0.1h-4
			v0.6h-0.8c0-0.4,0.1-0.7,0.1-1.3v-3.3c0-0.7,0-1.1,0-1.2c-0.2,0.4-0.4,0.6-0.8,1c-0.1-0.2-0.3-0.5-0.5-0.6
			c0.9-0.8,1.5-1.6,2.2-2.8c0.2-0.3,0.3-0.6,0.4-0.9h-1.4v1.4h-0.8c0-0.2,0-0.4,0-0.7v-0.7c0-0.2,0-0.3,0-0.6c0.3,0,0.3,0,1.1,0h1.3
			c0.2-0.6,0.3-0.9,0.4-1.3l0.8,0.1c-0.1,0.2-0.1,0.2-0.2,0.6c-0.1,0.2-0.1,0.4-0.2,0.6h2.4c0.5,0,0.8,0,1.2-0.1c0,0.2,0,0.4,0,0.8
			v0.6c0,0.3,0,0.4,0,0.7h-0.8v-1.3h-3.1c-0.3,0.8-0.6,1.2-1,1.9h1.6c0.2-0.5,0.4-0.9,0.5-1.4l0.7,0.2c-0.1,0.1-0.1,0.1-0.1,0.4
			c0,0.1-0.1,0.2-0.2,0.5c-0.1,0.3-0.1,0.3-0.2,0.4H37c0.5,0,0.8,0,1.1-0.1v0.8c-0.4,0-0.7-0.1-1.1-0.1h-1.3v1.3h1.1
			c0.5,0,0.8,0,1.1-0.1v0.8c-0.4,0-0.7-0.1-1.1-0.1h-1.1v1.3h1.1c0.5,0,0.8,0,1.1-0.1V27c-0.4,0-0.7-0.1-1.1-0.1h-1.1v1.4H37.2z
			 M35,24.4v-1.3h-1.9v1.3H35z M33.2,26.3H35V25h-1.9V26.3z M33.2,28.4H35V27h-1.9V28.4z"/>
		<path class="st3" d="M39.7,20.8c0.3,0,0.5,0.1,1,0.1h2.1c0.5,0,0.7,0,1-0.1v0.8c-0.3,0-0.5,0-0.9,0h-2.2c-0.4,0-0.7,0-1,0V20.8z
			 M40.2,19.1c0.3,0,0.4,0.1,0.9,0.1h1.6c0.4,0,0.6,0,0.9-0.1v0.8c-0.3,0-0.5,0-0.9,0H41c-0.4,0-0.6,0-0.9,0V19.1z M40.2,22.5
			c0.2,0,0.4,0,0.8,0h1.6c0.4,0,0.6,0,0.8,0v0.8c-0.3,0-0.4,0-0.8,0H41c-0.4,0-0.6,0-0.8,0V22.5z M40.2,24.1c0.2,0,0.4,0,0.8,0h1.6
			c0.4,0,0.6,0,0.8,0v0.8c-0.3,0-0.4,0-0.8,0H41c-0.4,0-0.6,0-0.8,0V24.1z M40.2,29.6c0-0.4,0.1-0.8,0.1-1.2v-1.6c0-0.4,0-0.7,0-1
			c0.3,0,0.5,0,1,0h1.3c0.4,0,0.7,0,0.9,0c0,0.2,0,0.5,0,0.9v1.7c0,0.4,0,0.7,0.1,1h-0.7v-0.5H41v0.7H40.2z M41,28.3h1.7v-1.8H41
			V28.3z M45.1,25.8c-0.2,1.4-0.3,1.9-0.8,2.9l-0.7-0.3c0.5-1,0.7-1.6,0.8-2.7L45.1,25.8z M44.8,20.6c0.7,0.2,0.9,0.3,1.5,0.6
			c0.1-0.4,0.2-0.6,0.3-1.3h-1.1c-0.6,0-0.9,0-1.2,0.1v-0.8c0.3,0,0.7,0.1,1.2,0.1h3.7c0.5,0,0.8,0,1.1,0c0,0.2,0,0.2,0,0.6
			c-0.1,2-0.3,3.3-0.6,3.8C49.4,24,49.1,24,48.5,24c-0.3,0-0.7,0-1-0.1c0-0.3-0.1-0.5-0.2-0.8c0.4,0.1,0.8,0.1,1.1,0.1
			c0.4,0,0.5-0.1,0.7-0.6c0.2-0.6,0.2-1.5,0.3-2.8h-2.2c-0.1,0.8-0.2,1.1-0.4,1.6c0.5,0.3,0.7,0.4,1.3,0.8l-0.4,0.6
			c-0.5-0.4-0.7-0.5-1.2-0.8c-0.4,1-1.1,1.7-2.4,2.5c-0.2-0.3-0.3-0.4-0.5-0.6c1.2-0.6,1.9-1.3,2.3-2.2c-0.6-0.3-0.8-0.4-1.6-0.6
			L44.8,20.6z M46.3,28.4c0,0.3,0.1,0.3,0.7,0.3c0.3,0,0.8,0,1,0c0.4,0,0.5-0.2,0.6-0.7c0-0.3,0.1-0.6,0.1-1
			c0.3,0.1,0.4,0.2,0.7,0.3c-0.1,1.1-0.2,1.6-0.5,1.9c-0.2,0.2-0.6,0.3-1.8,0.3s-1.5-0.1-1.5-0.8v-2.2c0-0.4,0-0.7-0.1-1h0.9
			c-0.1,0.3-0.1,0.5-0.1,0.9V28.4z M46.4,23.9c0.9,0.6,1.3,0.9,2,1.6L47.8,26c-0.6-0.7-1-1.1-1.9-1.7L46.4,23.9z M49.6,25.5
			c0.7,0.9,0.9,1.3,1.5,2.6l-0.6,0.4c-0.5-1.2-0.8-1.7-1.4-2.6L49.6,25.5z"/>
		<path class="st3" d="M56.8,24.5H54c-0.5,0-0.8,0-1.1,0.1v-0.8c0.3,0,0.6,0.1,1.2,0.1h2.8v-0.8h-2.5c-0.4,0-0.7,0-1,0
			c0-0.3,0-0.5,0-0.8v-0.5c0-0.3,0-0.5,0-0.8c0.3,0,0.6,0,1,0h2.5v-0.8h-3.5c-0.6,0-1,0-1.4,0.1v-0.8c0.3,0,0.7,0.1,1.4,0.1h3.5
			c0-0.6,0-0.8-0.1-1.1h0.9c-0.1,0.3-0.1,0.5-0.1,1.1h3.7c0.7,0,1.1,0,1.4-0.1v0.8c-0.4,0-0.8-0.1-1.4-0.1h-3.7V21h2.8
			c0.4,0,0.7,0,1,0c0,0.3,0,0.5,0,0.8v0.5c0,0.3,0,0.5,0,0.8c-0.3,0-0.6,0-1,0h-2.8v0.8h2.6c0.7,0,1,0,1.4,0c0,0.3,0,0.5,0,1v0.5
			c0.7,0,1,0,1.3-0.1v0.8c-0.3,0-0.6-0.1-1.3-0.1v0.8c0,0.6,0,0.9,0.1,1.2h-0.8v-0.5h-3.2v1c0,0.8-0.2,1-1.4,1c-0.3,0-0.5,0-1.2,0
			c0-0.3-0.1-0.5-0.2-0.8c0.6,0.1,1,0.1,1.5,0.1c0.4,0,0.5-0.1,0.5-0.3v-1h-2.9c-0.6,0-0.8,0-1.2,0.1v-0.8c0.3,0,0.6,0.1,1.2,0.1
			h2.9V26h-3.6c-0.7,0-1,0-1.3,0.1v-0.8c0.3,0,0.6,0.1,1.3,0.1h3.6V24.5z M54.1,21.6v0.9h2.8v-0.9H54.1z M57.5,22.5h3v-0.9h-3V22.5z
			 M60.8,25.4v-0.8h-3.2v0.8H60.8z M57.5,26.9h3.2V26h-3.2V26.9z"/>
		<path class="st3" d="M64.9,20.5c-0.3,0-0.5,0-0.8,0v-0.8c0.2,0,0.5,0,0.9,0h1.6c0.4,0,0.7,0,0.9,0v0.8c-0.3,0-0.5,0-0.8,0h-0.4V26
			c0.5-0.2,0.8-0.3,1.4-0.6v0.8c-0.8,0.4-1.4,0.7-3.2,1.3c0,0-0.1,0-0.2,0.1l-0.2-0.8c0.4,0,0.8-0.2,1.6-0.5v-5.8H64.9z M70.1,28
			c-1,0.8-1.6,1.1-3,1.6c-0.2-0.3-0.3-0.4-0.5-0.7c1.4-0.4,2-0.8,2.8-1.4L70.1,28z M68.9,19.9c-0.5,0-0.8,0-1.2,0v-0.8
			c0.4,0,0.7,0.1,1.2,0.1h4.6c0.6,0,0.8,0,1.1-0.1V20c-0.3,0-0.6-0.1-1.1-0.1h-2c-0.2,0.5-0.4,0.9-0.5,1.2h2.1c0.1,0,0.1,0,0.1,0
			c0.2,0,0.6,0,0.8,0c0,0.2,0,0.7,0,1.1v3.9c0,0.5,0,0.9,0,1.2c0,0-0.1,0-0.1,0c-0.1,0-0.2,0-0.2,0h-0.2l-0.6,0h-3.6
			c-0.4,0-0.8,0-1,0c0-0.3,0-0.7,0-1.2v-4c0-0.5,0-0.8,0-1.1c0.2,0,0.2,0,1,0h0.9c0.2-0.4,0.4-0.7,0.5-1.2H68.9z M69,22.9h4.2v-1.2
			H69V22.9z M69,24.7h4.2v-1.2H69V24.7z M69,26.6h4.2v-1.2H69V26.6z M72.3,27.5c0.9,0.7,1.6,1,2.8,1.4c-0.2,0.2-0.3,0.3-0.5,0.7
			c-1.2-0.5-1.9-0.9-2.9-1.6L72.3,27.5z"/>
	</g>
</g>
</svg>
