<?xml version="1.0" encoding="utf-8"?>
<!-- Generator: Adobe Illustrator 23.0.1, SVG Export Plug-In . SVG Version: 6.00 Build 0)  -->
<svg version="1.1" id="レイヤー_1" xmlns="http://www.w3.org/2000/svg" xmlns:xlink="http://www.w3.org/1999/xlink" x="0px"
	 y="0px" viewBox="0 0 77 48" style="enable-background:new 0 0 77 48;" xml:space="preserve">
<style type="text/css">
	.st0{fill:#5A636D;}
	.st1{font-family:'HiraKakuPro-W3-90ms-RKSJ-H';}
	.st2{font-size:12.113px;}
</style>
<text transform="matrix(1 0 0 1 15.9016 28.7427)" class="st0 st1 st2">ガイド一覧</text>
<path class="st0" d="M1,32.8c-0.5,0-0.9-0.4-0.9-0.8V18.5c0-1,0.9-1.8,2-1.8H14c0.2,0,0.4,0.1,0.4,0.3v14.1c0,0.2-0.2,0.3-0.4,0.3
	h-0.4c-0.2,0-0.4-0.1-0.4-0.3V17.8c0-0.1,0-0.1-0.1-0.1c0,0-0.1-0.1-0.2-0.1c0,0-10.8,0-10.8,0c-0.3,0-0.6,0.3-0.6,0.6
	c0,0.3,0.3,0.6,0.6,0.6H12c0.2,0,0.3,0.2,0.3,0.3v13.4c0,0.2-0.2,0.3-0.4,0.3H1z"/>
</svg>
